<?xml version="1.0" encoding="UTF-8"?>
<svg id="Layer_1" data-name="Layer 1" xmlns="http://www.w3.org/2000/svg" xmlns:xlink="http://www.w3.org/1999/xlink" viewBox="0 0 4001 4001">
  <defs>
    <style>
      .cls-1 {
        clip-path: url(#clippath-4);
      }

      .cls-1, .cls-2, .cls-3, .cls-4, .cls-5, .cls-6, .cls-7, .cls-8, .cls-9, .cls-10, .cls-11, .cls-12, .cls-13, .cls-14, .cls-15, .cls-16, .cls-17, .cls-18, .cls-19, .cls-20, .cls-21 {
        fill: none;
      }

      .cls-22 {
        fill: url(#linear-gradient-2);
      }

      .cls-2 {
        clip-path: url(#clippath-2);
      }

      .cls-3 {
        clip-path: url(#clippath-6);
      }

      .cls-23 {
        fill: url(#linear-gradient-17);
      }

      .cls-4 {
        clip-path: url(#clippath-9);
      }

      .cls-24 {
        fill: #fce2a6;
      }

      .cls-24, .cls-25, .cls-26 {
        fill-rule: evenodd;
      }

      .cls-5 {
        clip-path: url(#clippath-12);
      }

      .cls-27 {
        fill: url(#linear-gradient-15);
      }

      .cls-6 {
        clip-path: url(#clippath-13);
      }

      .cls-28 {
        fill: url(#linear-gradient-18);
      }

      .cls-29 {
        fill: url(#linear-gradient-14);
      }

      .cls-30 {
        fill: url(#linear-gradient-20);
      }

      .cls-31 {
        fill: url(#linear-gradient-6);
      }

      .cls-32 {
        fill: url(#linear-gradient-11);
      }

      .cls-7 {
        clip-path: url(#clippath-7);
      }

      .cls-8 {
        mask: url(#mask-1);
      }

      .cls-9 {
        clip-path: url(#clippath-10);
      }

      .cls-33 {
        fill: url(#linear-gradient-10);
      }

      .cls-10 {
        clip-path: url(#clippath-5);
      }

      .cls-34 {
        fill: url(#linear-gradient-16);
      }

      .cls-11 {
        clip-path: url(#clippath-16);
      }

      .cls-12 {
        clip-path: url(#clippath-15);
      }

      .cls-35 {
        fill: url(#linear-gradient-5);
      }

      .cls-13 {
        clip-path: url(#clippath-3);
      }

      .cls-14 {
        clip-path: url(#clippath-11);
      }

      .cls-15 {
        clip-rule: evenodd;
      }

      .cls-36 {
        fill: #fff;
        stroke: #000;
        stroke-miterlimit: 10;
      }

      .cls-16 {
        clip-path: url(#clippath-17);
      }

      .cls-37 {
        fill: url(#linear-gradient-7);
      }

      .cls-17 {
        clip-path: url(#clippath);
      }

      .cls-18 {
        mask: url(#mask);
      }

      .cls-38 {
        fill: url(#linear-gradient-9);
      }

      .cls-39 {
        fill: url(#linear-gradient-3);
      }

      .cls-25 {
        fill: #003780;
      }

      .cls-19 {
        clip-path: url(#clippath-1);
      }

      .cls-20 {
        clip-path: url(#clippath-8);
      }

      .cls-40 {
        fill: url(#linear-gradient);
      }

      .cls-21 {
        clip-path: url(#clippath-14);
      }

      .cls-41 {
        fill: url(#linear-gradient-19);
      }

      .cls-42 {
        fill: url(#linear-gradient-4);
      }

      .cls-43 {
        fill: url(#linear-gradient-8);
      }

      .cls-44 {
        fill: url(#linear-gradient-12);
      }

      .cls-45 {
        fill: url(#linear-gradient-13);
      }
    </style>
    <clipPath id="clippath">
      <path class="cls-15" d="m2555.6,1534.68l96.92-563.47c-105.56,132.32-282.57,434.2-162.32,724.49,33.78-96.37,65.4-161.03,65.4-161.03"/>
    </clipPath>
    <linearGradient id="linear-gradient" x1="2610.85" y1="988.9" x2="2460.04" y2="1510.49" gradientUnits="userSpaceOnUse">
      <stop offset="0" stop-color="#ffce4b"/>
      <stop offset="1" stop-color="#f452cb"/>
    </linearGradient>
    <clipPath id="clippath-1">
      <path class="cls-15" d="m2461.14,1761.84l-184.35-541.21c-28.85,163.46-40.04,502.94,190.01,702.22,2.19-11.54,4.53-22.99,7.01-34.34-10.44-75.95-12.66-126.67-12.66-126.67"/>
    </clipPath>
    <linearGradient id="linear-gradient-2" x1="2277.54" y1="1305.95" x2="2420.34" y2="1794.19" gradientUnits="userSpaceOnUse">
      <stop offset="0" stop-color="#f452cb"/>
      <stop offset="1" stop-color="#0928d8"/>
    </linearGradient>
    <clipPath id="clippath-2">
      <path class="cls-15" d="m2427.69,1933.44l-359.43-444.63c27.81,155.65,125.67,455.75,380.91,577.11,1.16-24.02,3.36-48.14,6.37-72.13-18.2-37.22-27.85-60.34-27.85-60.34"/>
    </clipPath>
    <linearGradient id="linear-gradient-3" x1="2055.77" y1="1576.27" x2="2469.29" y2="1979.67" gradientUnits="userSpaceOnUse">
      <stop offset="0" stop-color="#4eeb90"/>
      <stop offset="1" stop-color="#00478f"/>
    </linearGradient>
    <clipPath id="clippath-3">
      <path class="cls-15" d="m2414.56,2068.99l-484.78-303.11c74.72,133.89,256,374.74,523.02,417.91-3.15-25.94-4.58-52.47-4.58-79.28-21.62-22.01-33.66-35.53-33.66-35.53"/>
    </clipPath>
    <linearGradient id="linear-gradient-4" x1="2453.86" y1="2160.41" x2="1965.04" y2="1814.94" gradientUnits="userSpaceOnUse">
      <stop offset="0" stop-color="#008a80"/>
      <stop offset="1" stop-color="#aff022"/>
    </linearGradient>
    <clipPath id="clippath-4">
      <path class="cls-15" d="m2455.67,2204.31l-456.24-112.01c89.05,81.92,274.75,212.82,482.01,208.1-9.63-24.26-16.91-49.7-22.16-75.97-1.33-6.66-2.53-13.37-3.61-20.13"/>
    </clipPath>
    <linearGradient id="linear-gradient-5" x1="2488.72" y1="2327.63" x2="1973.2" y2="2059.96" gradientUnits="userSpaceOnUse">
      <stop offset="0" stop-color="#0286cf"/>
      <stop offset="1" stop-color="#51f4e9"/>
    </linearGradient>
    <clipPath id="clippath-5">
      <path class="cls-15" d="m2486.9,2313.45l-340.56,42.31c86.64,34.55,243.66,76.48,395.85,45.22-23.18-26.41-41.35-55.87-55.29-87.53"/>
    </clipPath>
    <linearGradient id="linear-gradient-6" x1="2637.64" y1="2406.61" x2="2112.45" y2="2346.17" xlink:href="#linear-gradient-5"/>
    <clipPath id="clippath-6">
      <path class="cls-15" d="m2530.52,2195.96c-53.56-108.83-72.65-305.66,25.08-661.28,0,0-71.53,146.24-114.37,326.74-27.59,116.22-43.28,246.64-20.32,361.37,21.09,105.42,74.82,197.59,181.92,253.33,8.11-8.32,15.76-16.64,22.99-24.81,31.42-35.54,81.92-100.25,107.69-121.46,0,0-131.88,10.6-202.99-133.89"/>
    </clipPath>
    <linearGradient id="linear-gradient-7" x1="2501.73" y1="2447.52" x2="2612" y2="1685.75" gradientUnits="userSpaceOnUse">
      <stop offset="0" stop-color="#0012af"/>
      <stop offset="1" stop-color="#da34c4"/>
    </linearGradient>
    <clipPath id="clippath-7">
      <path class="cls-15" d="m1802.63,3030.04l-451.15,431.92c178.67-47.64,530.23-197.79,613.19-530.86-92.28,62.7-162.04,98.94-162.04,98.94"/>
    </clipPath>
    <linearGradient id="linear-gradient-8" x1="1904.55" y1="3053.64" x2="1271.84" y2="3420.46" xlink:href="#linear-gradient-5"/>
    <clipPath id="clippath-8">
      <path class="cls-15" d="m1940.74,3023.2l-185.11,503.73c119.91-104.24,334.57-352.88,272.83-641.29-47.55,83.24-87.71,137.56-87.71,137.56"/>
    </clipPath>
    <linearGradient id="linear-gradient-9" x1="2049.61" y1="3017.21" x2="1699.79" y2="3539.25" xlink:href="#linear-gradient-5"/>
    <clipPath id="clippath-9">
      <path class="cls-15" d="m2046.84,2938.28l26.31,467.85c59.95-125.11,145.76-398.79-3.71-608.49-9.24,83.19-22.6,140.64-22.6,140.64"/>
    </clipPath>
    <linearGradient id="linear-gradient-10" x1="2169.56" y1="2902.65" x2="2070.22" y2="3442.27" xlink:href="#linear-gradient-5"/>
    <clipPath id="clippath-10">
      <path class="cls-15" d="m2248.44,2294.02c-223.46,280.58-434.2,655.13-505.43,795.25l423.77-75.04c411.06-97.63,516.42-357.14,547.73-562.05,2.77-18.13,4.96-35.83,6.73-52.95,7.7-74.46,13.11-203.89,26.73-254.76,7.94-29.65,25.6-53.2,59.7-61.15,24.79-5.78,54.26-3.52,75.33,2.8-28.69-49.66-92.7-72.84-92.7-72.84-16.95-34.41-49.38-48.91-76.93-54.86-98.01-21.2-221.98,65.53-348.87,200.55-38.63,41.11-77.54,86.69-116.06,135.06"/>
    </clipPath>
    <linearGradient id="linear-gradient-11" x1="2467.78" y1="2776.16" x2="2048.91" y2="2064.62" gradientUnits="userSpaceOnUse">
      <stop offset="0" stop-color="#0f0db2"/>
      <stop offset="1" stop-color="#ec2fd3"/>
    </linearGradient>
    <linearGradient id="linear-gradient-12" x1="-51.45" y1="2666.65" x2="10.35" y2="3209.59" gradientTransform="translate(2232.95 -311.07)" gradientUnits="userSpaceOnUse">
      <stop offset="0" stop-color="#fff"/>
      <stop offset="1" stop-color="#000"/>
    </linearGradient>
    <mask id="mask" x="1743.01" y="2452.17" width="971.51" height="637.09" maskUnits="userSpaceOnUse">
      <rect class="cls-44" x="1743.01" y="2452.17" width="971.5" height="637.09"/>
    </mask>
    <clipPath id="clippath-11">
      <path class="cls-15" d="m1789.63,1287.12l-392.87-812.23c-14.02,266.75,35.9,816.75,456.75,1078.97-45.11-154.72-63.88-266.73-63.88-266.73"/>
    </clipPath>
    <linearGradient id="linear-gradient-13" x1="1439.21" y1="507.71" x2="1724.51" y2="1315.66" xlink:href="#linear-gradient"/>
    <clipPath id="clippath-12">
      <path class="cls-15" d="m1876.92,1665.41l-733.47-525.44c113.02,236.3,410.31,682.33,888.55,726.92-7.78-16.82-15.29-33.68-22.53-50.5-83.13-87.91-132.54-150.97-132.54-150.97"/>
    </clipPath>
    <linearGradient id="linear-gradient-14" x1="1238.17" y1="1229.12" x2="1869.7" y2="1724.7" xlink:href="#linear-gradient-2"/>
    <clipPath id="clippath-13">
      <path class="cls-15" d="m1991.52,1916.39l-869.55-240.75c178.59,174.26,579.7,469.63,1018.73,391.08-20.56-31.9-39.89-64.87-58.04-98.44-57.54-31.07-91.15-51.89-91.15-51.89"/>
    </clipPath>
    <linearGradient id="linear-gradient-15" x1="1179.83" y1="1841.2" x2="2080.96" y2="1979.41" xlink:href="#linear-gradient-3"/>
    <clipPath id="clippath-14">
      <path class="cls-15" d="m2099.1,2102.43l-900.52,55.98c218.83,103.27,672.62,246,1054.99,56.28-27.86-30.41-54.05-63.15-78.66-97.55-47.97-8.4-75.81-14.7-75.81-14.7"/>
    </clipPath>
    <linearGradient id="linear-gradient-16" x1="2233.87" y1="2250.55" x2="1289.27" y2="2255.9" xlink:href="#linear-gradient-4"/>
    <clipPath id="clippath-15">
      <path class="cls-15" d="m2276.1,2238.39l-688.45,275.07c189.51,23.41,548.04,20.95,809.74-175.38-34.63-22.3-67.33-48.27-98.19-77.16-7.82-7.32-15.52-14.84-23.11-22.53"/>
    </clipPath>
    <linearGradient id="linear-gradient-17" x1="2425.91" y1="2325.71" x2="1518.47" y2="2455.35" xlink:href="#linear-gradient-5"/>
    <clipPath id="clippath-16">
      <path class="cls-15" d="m2416.38,2349.81l-398.3,366.95c142.93-35.19,382.98-125.52,549.62-305.36-54-12.63-104.37-33.75-151.32-61.59"/>
    </clipPath>
    <linearGradient id="linear-gradient-18" x1="2686.51" y1="2315.04" x2="1956.91" y2="2719.56" xlink:href="#linear-gradient-5"/>
    <clipPath id="clippath-17">
      <path class="cls-15" d="m2364.5,2158.96c-168.66-90.52-373.85-325.65-574.88-871.84,0,0,42.43,253.38,153.14,524.39,71.29,174.5,170.87,356.31,305.67,482.5,123.85,115.95,277.43,184.94,466.07,158.16,2.77-18.13,4.96-35.83,6.73-52.95,7.7-74.46,13.11-203.89,26.73-254.76,0,0-159.55,134.68-383.47,14.5"/>
    </clipPath>
    <linearGradient id="linear-gradient-19" x1="2584.96" y1="2494.64" x2="2027.16" y2="1415.6" xlink:href="#linear-gradient-7"/>
    <linearGradient id="linear-gradient-20" x1="116.02" y1="2488.09" x2="154.47" y2="2807.28" gradientTransform="translate(2438.72 -619.08)" xlink:href="#linear-gradient-12"/>
    <mask id="mask-1" x="2364.5" y="1955.23" width="425.8" height="203.73" maskUnits="userSpaceOnUse">
      <rect class="cls-30" x="2364.5" y="1955.23" width="425.8" height="203.73"/>
    </mask>
  </defs>
  <rect class="cls-36" x=".5" y=".5" width="4000" height="4000"/>
  <g>
    <path class="cls-25" d="m2555.6,1534.68l96.92-563.47s-494.09,379.95-211.29,890.2c42.84-180.5,114.37-326.74,114.37-326.74"/>
    <g class="cls-17">
      <rect class="cls-40" x="2369.94" y="971.21" width="282.57" height="724.49"/>
    </g>
    <path class="cls-25" d="m2461.14,1761.84l-184.35-541.21s-227.99,515.34,172.94,834.96c3.4-56.3,12.29-112.95,24.08-167.08-10.44-75.96-12.66-126.68-12.66-126.68"/>
    <g class="cls-19">
      <rect class="cls-22" x="2236.75" y="1220.63" width="237.06" height="702.22"/>
    </g>
    <path class="cls-25" d="m2427.69,1933.44l-359.43-444.63s-33.31,511.09,385.06,699.18c-8.08-62.68-5.99-128.91,2.22-194.2-18.2-37.23-27.85-60.35-27.85-60.35"/>
    <g class="cls-2">
      <rect class="cls-39" x="2068.26" y="1488.81" width="387.28" height="577.11"/>
    </g>
    <path class="cls-25" d="m2414.56,2068.99l-484.78-303.11s126.87,463.4,549.95,530.12c-8.78-22.93-15.51-46.89-20.45-71.57-7.72-38.58-11.06-78.93-11.06-119.92-21.62-22.01-33.66-35.53-33.66-35.53"/>
    <g class="cls-13">
      <rect class="cls-42" x="1929.78" y="1765.88" width="523.02" height="417.91"/>
    </g>
    <path class="cls-25" d="m2455.67,2204.31l-456.24-112.01s202.78,305.97,530.84,294.26c-36.64-46.99-59.05-102.43-71-162.13-1.33-6.66-2.53-13.37-3.61-20.13"/>
    <g class="cls-1">
      <rect class="cls-35" x="1999.43" y="2092.3" width="482.01" height="212.82"/>
    </g>
    <path class="cls-25" d="m2486.9,2313.45l-340.56,42.31s219.86,157.33,464.34,104.22c-58.55-38.04-98.28-88.6-123.78-146.53"/>
    <g class="cls-10">
      <rect class="cls-31" x="2146.34" y="2313.45" width="395.85" height="118.79"/>
    </g>
    <g class="cls-3">
      <rect class="cls-37" x="2397.95" y="1534.68" width="335.56" height="941.43"/>
    </g>
    <path class="cls-25" d="m1802.63,3030.04l-451.15,431.92s680.76-12.74,763.85-644.59c-154.88,130.7-312.7,212.67-312.7,212.67"/>
    <g class="cls-7">
      <rect class="cls-43" x="1351.48" y="2931.1" width="613.19" height="530.86"/>
    </g>
    <path class="cls-25" d="m1940.74,3023.2l-185.11,503.73s520.63-266.9,346.16-785.96c-70.19,159.36-161.05,282.23-161.05,282.23"/>
    <g class="cls-20">
      <rect class="cls-38" x="1755.63" y="2885.64" width="334.57" height="641.29"/>
    </g>
    <path class="cls-25" d="m2046.84,2938.28l26.31,467.85s324.67-394.39,4.9-749.85c-.99,152.04-31.21,282-31.21,282"/>
    <g class="cls-4">
      <rect class="cls-33" x="2046.84" y="2797.64" width="172.07" height="608.49"/>
    </g>
    <g class="cls-9">
      <rect class="cls-32" x="1743.01" y="1937.22" width="1139.99" height="1152.05"/>
    </g>
    <g class="cls-18">
      <path class="cls-26" d="m1920.53,2774.09c-80.9,133.79-144.35,249.92-177.52,315.18l423.77-75.04c411.06-97.63,516.42-357.14,547.73-562.05,0,0-218.3,378.65-793.98,321.91"/>
    </g>
    <path class="cls-25" d="m1789.63,1287.12l-392.87-812.23s-285.41,941.29,546.02,1336.63c-110.71-271.01-153.14-524.39-153.14-524.39"/>
    <g class="cls-14">
      <rect class="cls-45" x="1382.74" y="474.89" width="470.77" height="1078.97"/>
    </g>
    <path class="cls-25" d="m1876.92,1665.41l-733.47-525.44s180.45,870.78,988.5,912.99c-47.32-75.4-87.92-156.27-122.48-236.56-83.13-87.92-132.55-150.98-132.55-150.98"/>
    <g class="cls-5">
      <rect class="cls-29" x="1143.45" y="1139.96" width="888.55" height="726.92"/>
    </g>
    <path class="cls-25" d="m1991.52,1916.39l-869.55-240.75s426.44,686.6,1136.13,543.96c-67.91-73.03-126.04-159.97-175.43-251.31-57.54-31.08-91.15-51.9-91.15-51.9"/>
    <g class="cls-6">
      <rect class="cls-27" x="1121.97" y="1675.63" width="1018.73" height="469.63"/>
    </g>
    <path class="cls-25" d="m2099.1,2102.43l-900.52,55.98s588.26,478.35,1192.57,175.59c-32.32-21.37-62.95-45.94-91.95-73.09-45.32-42.43-86.66-91.16-124.29-143.77-47.95-8.4-75.82-14.7-75.82-14.7"/>
    <g class="cls-21">
      <rect class="cls-34" x="1198.58" y="2102.43" width="1054.99" height="301.98"/>
    </g>
    <path class="cls-25" d="m2276.1,2238.39l-688.45,275.07s541.18,206.57,951.53-109.61c-90.17-26.68-169.84-77.27-239.97-142.93-7.82-7.32-15.52-14.84-23.11-22.53"/>
    <g class="cls-12">
      <rect class="cls-23" x="1587.65" y="2238.39" width="809.74" height="298.48"/>
    </g>
    <path class="cls-25" d="m2416.38,2349.81l-398.3,366.95s426.64.1,691.71-292.5c-110.08,4.93-207.49-23.5-293.4-74.45"/>
    <g class="cls-11">
      <rect class="cls-28" x="2018.07" y="2349.81" width="549.62" height="366.95"/>
    </g>
    <g class="cls-16">
      <rect class="cls-41" x="1789.63" y="1287.12" width="958.35" height="1191.84"/>
    </g>
    <g class="cls-8">
      <path class="cls-24" d="m2364.5,2158.96c244.94-205.24,425.8-145.68,425.8-145.68-16.95-34.41-49.38-48.91-76.93-54.86-98.01-21.2-221.98,65.53-348.87,200.55"/>
    </g>
  </g>
</svg>